<svg class="icon" viewBox="0 0 1024 1024" xmlns="http://www.w3.org/2000/svg" width="200" height="200"><defs><style/></defs><path d="M512 0C229.23 0 0 229.23 0 512s229.23 512 512 512 512-229.23 512-512S794.77 0 512 0zm0 998.4C243.369 998.4 25.6 780.631 25.6 512 25.6 243.366 243.369 25.6 512 25.6S998.4 243.366 998.4 512c0 268.631-217.769 486.4-486.4 486.4z"/><path d="M666.601 485.22c-70.69 0-128 57.31-128 128s57.31 128 128 128 128-57.31 128-128-57.31-128-128-128zm61.583 142.464l-47.086.02.02 47.094a14.49 14.49 0 11-28.984.01l-.02-47.088-47.094.02a14.487 14.487 0 01-14.495-14.484 14.482 14.482 0 0114.485-14.495l47.091-.023-.02-47.096a14.49 14.49 0 1128.979-.008l.025 47.091 47.092-.023a14.495 14.495 0 11.007 28.982zm-278.338-36.12c20.464 0 40.256-.473 59.059-1.336 5.04-37.079 23.286-69.949 49.874-93.706-32.14 3.036-69.3 4.777-108.936 4.777-121.75 0-220.447-16.363-220.447-36.539v90.26c.003 20.181 98.704 36.545 220.45 36.545zm0-145.417c121.764 0 220.464-16.364 220.464-36.552v-90.263c-.01-20.18-98.716-36.552-220.464-36.552-121.741 0-220.432 16.374-220.447 36.552v90.263c0 20.19 98.7 36.552 220.447 36.552zm58.404 180.661a1287.207 1287.207 0 01-58.404 1.308c-121.751 0-220.447-16.368-220.447-36.549v90.263c0 20.191 98.7 36.552 220.447 36.552 35.105 0 68.27-1.367 97.73-3.786-21.601-23.672-35.901-54.121-39.326-87.788z"/></svg>