<svg class="icon" viewBox="0 0 1024 1024" xmlns="http://www.w3.org/2000/svg" width="200" height="200"><defs><style/></defs><path d="M722.1 279.194h146.738l-184.524-192v154.214c-.026 20.838 16.947 37.786 37.785 37.786z"/><path d="M722.1 321.024c-43.905 0-79.622-35.712-79.622-79.616V46.976H192.717c-40.32 0-73.114 32.794-73.114 73.114v778.316c0 40.32 32.794 73.088 73.114 73.088H832.87c40.32 0 73.114-32.793 73.114-73.088V321.024H722.099zM691.2 620.8H537.6v153.6c0 14.141-11.459 25.6-25.6 25.6s-25.6-11.459-25.6-25.6V620.8H332.8c-14.141 0-25.6-11.459-25.6-25.6s11.459-25.6 25.6-25.6h153.6V416c0-14.141 11.459-25.6 25.6-25.6s25.6 11.459 25.6 25.6v153.6h153.6c14.141 0 25.6 11.459 25.6 25.6s-11.459 25.6-25.6 25.6z"/></svg>