<svg class="icon" viewBox="0 0 1024 1024" xmlns="http://www.w3.org/2000/svg" width="200" height="200"><defs><style/></defs><path d="M943.888 590.354l-2.376-.967c9.618-52.407 9.67-106.884-.77-160.942l79.501-76.938-35.36-85.47-113.096-4.282-.995.384a435.63 435.63 0 00-112.1-111.274l-.164-113.4-85.255-35.417-83.206 79.285c-51.326-9.448-104.643-9.804-157.57-.136L349.952 3.042l-83.54 34.699-1.437 112.654c-45.085 31.027-83.235 69.617-113.208 113.43l-112.627.163-36.05 87.184 78.844 81.718c-9.448 51.134-10.003 104.23-.61 156.993l-3.865 1.601L4.363 673.09l35.303 85.498 107.738-2.817.805-.329c30.685 45.884 69.14 84.638 112.902 115.11l-1.55 3.757 7.514 110.527 85.305 35.388 82.216-75.303 1.103-2.54a437.778 437.778 0 00157.74-1.358l79.117 79.45 85.305-35.388 3.151-114.697c43.977-30.664 81.165-68.65 110.555-111.494l.499.221 112.71-.385 36.023-87.24-76.91-81.136zm-83.15-64.367c-.277 7.1-.554 14.2-1.272 21.323-.272 2.654-.164 5.392-.499 8.012l-.605-.249c-3.813 30.443-11.326 60.915-23.65 90.64-11.93 29.036-27.675 55.28-45.854 79.037l.056.03c-.17.248-.39.413-.611.661C731.62 799.2 648.357 846.327 558.355 858.508l.05.22c-.825.114-1.708.057-2.539.17-26.574 3.424-53.588 3.836-80.717.911-1.88-.14-3.813-.056-5.636-.277l.164-.47c-30.72-3.756-61.492-11.354-91.495-23.813-30.28-12.571-57.628-29.17-82.154-48.536l-.553 1.267c-24.199-18.892-45.97-41.295-64.808-66.545l1.409-.582c-36.05-48.565-59.144-105.747-66.686-165.859l-1.273.526c-3.564-29.646-3.4-59.314.413-88.32l1.08.418c3.837-30.195 11.3-60.418 23.48-89.922 12.101-29.255 27.96-55.665 46.352-79.585l-.854-.363c2.376-3.094 5.25-5.799 7.706-8.814 1.578-1.93 3.287-3.728 4.922-5.636 15.44-17.952 32.18-34.913 51.24-49.668l.39.854c95.8-73.837 227.074-96.02 346.8-46.324 118.404 49.143 195.148 156.055 211.94 274.621l.72-.277c.441 3.094.333 6.217.661 9.284.775 6.546 1.052 13.176 1.437 19.751.72 11.546.833 22.985.335 34.448zM700.385 634.62l-.615-142.484c0-91.445-80.195-165.563-175.76-165.563S348.195 400.69 348.195 492.136l.61 142.484c-13.636 0-24.678 10.61-24.678 23.662s11.042 23.662 24.678 23.662h351.578c13.636 0 24.73-10.61 24.73-23.662s-11.094-23.662-24.73-23.662zm-76.537-43.078c0 9.566-1.323 17.096-3.512 25.903H428.647c-2.241-8.807-3.56-16.337-3.56-25.903l-.41-93.529c0-58.85 45.14-106.555 99.484-106.555 54.349 0 100.35 47.704 100.35 106.555l-.664 93.529z"/></svg>