<svg class="icon" viewBox="0 0 1024 1024" xmlns="http://www.w3.org/2000/svg" width="200" height="200"><defs><style/></defs><path d="M909.379 669.65c-.38-.65-.779-1.321-1.163-2.002a131.272 131.272 0 00-1.438-2.36c-.313-.461-.6-.932-.912-1.398-.614-.978-1.29-1.93-1.94-2.888-.261-.379-.533-.747-.784-1.09a113.377 113.377 0 00-4.649-5.909c-.112-.138-.26-.292-.384-.45a78.336 78.336 0 00-3.092-3.4c-.123-.149-.277-.292-.4-.44a100.884 100.884 0 00-9.64-8.802 388.424 388.424 0 0015.052-107.34c0-180.24-122.89-331.766-289.449-375.394-.373-.819-.798-1.633-1.198-2.452-.2-.359-.358-.732-.558-1.09a101.038 101.038 0 00-1.29-2.382c-.123-.235-.276-.491-.4-.727a109.342 109.342 0 00-2.723-4.5 17.48 17.48 0 00-.584-.88 52.316 52.316 0 00-1.49-2.166 13.082 13.082 0 00-.727-1.07 103.014 103.014 0 00-5.202-6.62c-.327-.37-.64-.743-.983-1.107-.527-.609-1.075-1.198-1.597-1.802l-1.127-1.147a79.54 79.54 0 00-2.785-2.79c-.456-.435-.87-.865-1.326-1.275a94.131 94.131 0 00-1.654-1.485l-1.418-1.224c-.543-.445-1.09-.916-1.633-1.372-.635-.527-1.306-1.029-1.966-1.536-.743-.588-1.506-1.136-2.268-1.7-.635-.46-1.27-.916-1.91-1.346-.528-.374-1.055-.717-1.587-1.07-.65-.446-1.342-.87-2.002-1.28-.492-.318-.973-.61-1.47-.917a97.085 97.085 0 00-3.271-1.884c-.461-.246-.932-.481-1.367-.737-.8-.41-1.588-.82-2.386-1.208-.487-.236-.978-.471-1.485-.727a129.19 129.19 0 00-2.929-1.321l-.932-.42c-1.213-.512-2.452-.973-3.67-1.444l-1.347-.466a66.918 66.918 0 00-2.857-.973 116.828 116.828 0 01-1.234-.42 99.466 99.466 0 00-3.999-1.126c-.271-.056-.548-.133-.855-.19a78.828 78.828 0 00-4.695-1.054 103.014 103.014 0 00-3.43-.63c-.292-.046-.584-.102-.891-.138a100.419 100.419 0 00-4.296-.543c-.363-.046-.747-.082-1.106-.118a97.559 97.559 0 00-3.42-.235c-.42-.036-.84-.057-1.26-.082a87.46 87.46 0 00-8.919 0 90.563 90.563 0 00-5.1.353c-.142.016-.322.016-.475.036-1.45.164-2.873.353-4.29.553l-1.127.174c-1.183.19-2.381.41-3.528.645a68.895 68.895 0 00-4.869 1.09c-.384.083-.748.19-1.126.293-1.07.291-2.146.578-3.185.916l-1.019.292c-1.306.41-2.58.845-3.855 1.305-.364.118-.712.272-1.086.41-.962.374-1.945.748-2.913 1.152-.384.154-.799.312-1.162.481a80.765 80.765 0 00-3.6 1.629c-.363.153-.706.343-1.09.527a52.11 52.11 0 00-2.601 1.346 38.287 38.287 0 00-1.29.702 56.91 56.91 0 00-3.323 1.894c-.348.215-.691.456-1.06.66-.799.482-1.562 1-2.36 1.5l-1.347.938a66.547 66.547 0 00-2.452 1.715c-.548.39-1.076.82-1.598 1.208-.712.548-1.418 1.091-2.13 1.685-.47.363-.911.737-1.382 1.126-.62.528-1.255 1.07-1.854 1.618a76.346 76.346 0 00-1.833 1.654c-.62.594-1.274 1.198-1.894 1.802-.45.471-.906.917-1.362 1.393a60.375 60.375 0 00-3.2 3.456 75.063 75.063 0 00-1.777 2.027c-.44.528-.875 1.07-1.31 1.598-.4.512-.82 1.008-1.198 1.536-.42.527-.835 1.08-1.255 1.618a97.907 97.907 0 00-1.93 2.734c-.42.589-.783 1.172-1.167 1.756-.364.527-.686 1.055-1.02 1.582-.383.61-.762 1.208-1.105 1.818a95.868 95.868 0 00-1.68 2.882v.016c-178.795 34.636-313.825 191.98-313.825 380.922a387.876 387.876 0 0015.053 107.341c-2.074 1.67-4.09 3.4-6.036 5.223-.021.03-.057.092-.093.128a76.617 76.617 0 00-3.491 3.45l-.42.44a62.771 62.771 0 00-3.072 3.41c-.149.15-.256.303-.4.441a105.381 105.381 0 00-4.659 5.909 191.442 191.442 0 00-2.744 3.978c-.292.47-.6.932-.891 1.398a72.618 72.618 0 00-1.434 2.36c-.399.68-.763 1.352-1.167 2.002-.292.568-.6 1.11-.89 1.659a80.98 80.98 0 00-1.455 2.841c-.256.502-.456.999-.707 1.5-.42.881-.798 1.731-1.198 2.642-.22.512-.435 1.06-.655 1.598a52.29 52.29 0 00-1.09 2.76c-.164.399-.308.778-.451 1.172-.4 1.178-.82 2.34-1.183 3.528-.128.379-.235.757-.363 1.162-.364 1.198-.748 2.442-1.055 3.67-.077.329-.149.651-.256.969a133.53 133.53 0 00-.891 3.957c-.036.139-.051.292-.092.44a138.266 138.266 0 00-.82 4.742 61.64 61.64 0 00-.527 4.178c-.056.26-.071.548-.107.84-.128 1.418-.256 2.82-.307 4.249a112.056 112.056 0 00-.154 5.248c0 53.58 43.433 97.019 97.014 97.019 1.654 0 3.292-.041 4.925-.149.656 0 1.326-.092 1.982-.128.962-.092 1.91-.117 2.857-.22.855-.092 1.71-.21 2.58-.327.727-.082 1.454-.16 2.181-.272.983-.138 1.925-.327 2.888-.502.599-.107 1.198-.2 1.782-.327 1.054-.2 2.073-.461 3.128-.702.491-.102.983-.21 1.49-.338a68.08 68.08 0 003.236-.89c.4-.128.84-.22 1.275-.37 1.09-.317 2.201-.7 3.292-1.08.348-.117.747-.24 1.11-.368 1.107-.4 2.202-.83 3.272-1.27.313-.107.564-.2.856-.328C306.59 877.598 404.152 921.6 512.005 921.6c107.848 0 205.41-44.001 275.733-115.031.276.128.563.2.84.328 1.09.42 2.18.85 3.276 1.249.379.128.758.25 1.126.4 1.112.368 2.202.731 3.308 1.049.415.148.835.24 1.27.389a93.7 93.7 0 003.22.87c.512.128.999.241 1.51.338a73.5 73.5 0 003.088.722c.584.118 1.198.2 1.802.313.963.169 1.915.358 2.893.501.707.108 1.454.19 2.202.272.855.128 1.69.24 2.544.317.947.108 1.925.159 2.857.23.656.041 1.331.129 2.002.129a74.71 74.71 0 004.905.148c53.586 0 97.019-43.438 97.019-97.019l-12.221-47.155zm-681.252-45.542a97.162 97.162 0 00-28.708-4.332c-5.29 0-10.47.46-15.544 1.26a339.917 339.917 0 01-11.403-87.47c0-157.804 107.633-290.417 253.486-328.525a96.492 96.492 0 0020.332 53.98L228.127 624.108zm283.883 248.98c-91.996 0-175.452-36.598-236.595-96.041a96.717 96.717 0 0015.478-27.889h442.22a96.614 96.614 0 0015.492 27.889c-61.143 59.443-144.593 96.041-236.595 96.041zm216.197-167.06H295.828a96.625 96.625 0 00-30.412-60.278l214.671-359.225a96.758 96.758 0 0042.685 9.908 96.697 96.697 0 0039.91-8.581l205.16 350.28c-21.638 15.646-36.568 39.976-39.635 67.896zm111.939-84.987a95.375 95.375 0 00-32.763.312L596.884 261.985a96.681 96.681 0 0022.165-50.718c135.066 44.846 232.484 172.195 232.484 322.304a341.146 341.146 0 01-11.387 87.47z"/></svg>