<svg class="icon" viewBox="0 0 1024 1024" xmlns="http://www.w3.org/2000/svg" width="200" height="200"><defs><style/></defs><path d="M450.56 245.76c0-28.278-22.922-51.2-51.2-51.2H174.08c-28.278 0-51.2 22.922-51.2 51.2v225.28c0 28.278 22.922 51.2 51.2 51.2h225.28c28.278 0 51.2-22.922 51.2-51.2V245.76zm-46.08 188.508a41.892 41.892 0 01-41.892 41.892H215.972a41.892 41.892 0 01-41.892-41.892V287.652a41.892 41.892 0 0141.892-41.892h146.621a41.892 41.892 0 0141.887 41.892v146.616zm46.08 190.664c0-28.283-22.922-51.492-51.2-51.492H174.08c-28.278 0-51.2 23.209-51.2 51.492v225.28c0 28.267 22.922 50.908 51.2 50.908h225.28c28.278 0 51.2-22.64 51.2-50.908v-225.28zM404.48 813.44c0 23.132-18.755 41.6-41.892 41.6H215.972c-23.137 0-41.892-18.468-41.892-41.6V666.819c0-23.143 18.755-42.179 41.892-42.179h146.621c23.138 0 41.892 19.041 41.892 42.179V813.44zm322.642-675.85c-19.999-19.994-52.419-19.994-72.412 0l-159.3 159.293c-19.993 19.999-19.993 52.414 0 72.412l159.3 159.299c19.988 19.988 52.408 19.988 72.412 0L886.41 369.295c19.999-19.998 19.999-52.413 0-72.412L727.122 137.59zm100.71 165.878a41.887 41.887 0 010 59.238l-103.68 103.68a41.887 41.887 0 01-59.238 0l-103.67-103.68a41.887 41.887 0 010-59.238l103.67-103.68a41.887 41.887 0 0159.238 0l103.68 103.68zm1.608 321.464c0-28.278-22.927-51.492-51.2-51.492H552.96c-28.273 0-51.2 23.209-51.2 51.492v225.28c0 28.267 22.927 50.908 51.2 50.908h225.28c28.273 0 51.2-22.64 51.2-50.908v-225.28zM783.36 813.44c0 23.132-19.041 41.6-42.179 41.6H594.56a41.4 41.4 0 01-41.6-41.6V666.819c0-23.143 18.468-42.179 41.6-42.179h146.621c23.143 0 42.179 19.041 42.179 42.179V813.44z"/></svg>