<svg class="icon" viewBox="0 0 1024 1024" xmlns="http://www.w3.org/2000/svg" width="200" height="200"><defs><style/></defs><path d="M138.24 163.84a25.6 25.6 0 00-25.6 25.6v650.24c0 11.31 11.73 20.48 23.04 20.48h10.24c11.31 0 17.92-9.17 17.92-20.48V189.44a25.6 25.6 0 00-25.6-25.6z"/><path d="M888.32 808.96H135.68c-11.31 0-23.04 9.17-23.04 20.48v10.24c0 11.31 11.73 20.48 23.04 20.48h752.64c11.31 0 17.92-9.17 17.92-20.48v-10.24c0-11.31-6.61-20.48-17.92-20.48zM305.393 603.663a20.475 20.475 0 11-34.724-21.724l74.178-115.522a20.48 20.48 0 0128.227-6.498 20.475 20.475 0 016.497 28.222l-74.178 115.522zm407.87-16.394a20.485 20.485 0 01-39.266 11.669L576.983 288.25a20.48 20.48 0 0139.265-11.663l97.014 310.681z"/><path d="M480.481 699.97a20.48 20.48 0 01-38.569-13.782l132.332-413.353a20.48 20.48 0 0138.569 13.788L480.48 699.97z"/><path d="M479.596 682.368a20.48 20.48 0 01-10.143 27.126 20.49 20.49 0 01-27.131-10.148l-97.598-214.354a20.48 20.48 0 0137.274-16.973l97.598 214.349zM302.08 593.92a20.48 20.48 0 01-20.48 20.48h-46.08a20.48 20.48 0 010-40.96h46.08a20.48 20.48 0 0120.48 20.48zm558.08 0a20.48 20.48 0 01-20.48 20.48H691.2a20.48 20.48 0 010-40.96h148.48a20.48 20.48 0 0120.48 20.48z"/><path d="M793.6 591.36a46.08 46.08 0 1092.16 0 46.08 46.08 0 10-92.16 0z"/></svg>