<svg class="icon" viewBox="0 0 1024 1024" xmlns="http://www.w3.org/2000/svg" width="200" height="200"><defs><style/></defs><path d="M342.4 397.44s136.32-81.28 136.32-83.52c5.76 5.12-140.16-85.12-140.16-85.12l-139.2 85.44 143.04 83.2zm8.96 29.76v167.04l144.32-83.84V342.72c-.32 0-144.32 82.24-144.32 84.48zm-29.76 0c0-1.92-144.32-84.16-144.32-84.16v167.68l144.32 83.84V427.2zm0 200.32c0-1.92-144.32-84.16-144.32-84.16v167.68l144.32 83.84V627.52zM495.36 729.6c0-1.92-144.32-84.16-144.32-84.16v167.68l144.32 83.84V729.6zm189.12-331.84l143.04-83.52L688 229.12s-145.92 90.24-140.16 85.12c0 1.92 136.64 83.2 136.64 83.52zm-8.96 29.44c0-1.92-144.32-84.16-144.32-84.16v167.68l144.32 83.84V427.2zm29.44 0v167.04l144.32-83.84V342.72s-144.32 82.24-144.32 84.48zm0 200.32v167.04l144.32-83.84V543.04c0 .32-144.32 82.56-144.32 84.48zM531.2 729.6v167.04l144.32-83.84V645.12c0 .32-144.32 82.24-144.32 84.48zM512.32 128l140.16 84.16-139.2 85.12-140.16-85.12zm0 404.8l140.16 84.48-139.2 84.8-140.16-85.12z"/></svg>