<svg class="icon" viewBox="0 0 1024 1024" xmlns="http://www.w3.org/2000/svg" width="200" height="200"><defs><style/></defs><path d="M701.64 56.889H231.338c-75.094 0-136.534 61.44-136.534 136.533v637.156c0 75.093 61.44 136.533 136.534 136.533h561.294a136.932 136.932 0 00136.562-136.533V284.444L701.639 56.89zm151.693 773.689a60.871 60.871 0 01-60.7 60.672H231.339a60.843 60.843 0 01-60.672-60.672V193.422a60.871 60.871 0 0160.672-60.672h364.117v197.206a60.871 60.871 0 0060.672 60.672h197.205v439.95zM686.478 314.795a15.19 15.19 0 01-15.16-15.19V132.75l182.015 182.045H686.478z"/><path d="M580.238 671.289H322.361c-21.22 0-37.917 16.697-37.917 37.916s16.697 37.917 37.917 37.917h257.877c21.248 0 37.945-16.697 37.945-37.917s-16.697-37.916-37.945-37.916zM284.444 542.35a37.547 37.547 0 0037.917 37.917h379.278c21.22 0 37.917-16.697 37.917-37.917s-16.697-37.916-37.917-37.916H322.361a37.547 37.547 0 00-37.917 37.916z"/></svg>