<svg class="icon" viewBox="0 0 1024 1024" xmlns="http://www.w3.org/2000/svg" width="200" height="200"><defs><style/></defs><path d="M302.545 116.364h409.6a27.927 27.927 0 000-55.855h-409.6a27.927 27.927 0 100 55.855zm-93.09 102.4h595.781a27.927 27.927 0 000-55.855H209.455a27.927 27.927 0 100 55.855zm670.254 55.854H144.291c-51.414 0-93.091 41.686-93.091 93.091v512c0 51.414 41.677 93.091 93.09 93.091h735.42c51.413 0 93.09-41.677 93.09-93.09v-512c0-51.406-41.677-93.092-93.09-93.092zm37.236 594.33a46.545 46.545 0 01-46.545 46.545H153.6a46.545 46.545 0 01-46.545-46.545v-482.62a46.545 46.545 0 0146.545-46.546h716.8a46.545 46.545 0 0146.545 46.545v482.62zM602.177 522.622l-68.915-64.475a4.748 4.748 0 00-1.406-1.35 9.235 9.235 0 00-1.396-1.164 11.776 11.776 0 00-3.007-1.74c-.996-.578-1.797-.773-2.802-1.164-.605-.195-1.2-.391-2.01-.577-.392 0-.587-.196-.997-.196-2.197-.577-4.012-.577-5.008-.577h-.4c-.996 0-3.007 0-5.409.577-.4 0-.596.196-.996.196-.4.195-1.005.195-1.406.39a15.555 15.555 0 00-3.007 1.164c-.195 0-.195.196-.4.196 0 .195-.195.195-.195.195-1.201.578-2.607 1.35-3.612 2.123l-.196.195a7 7 0 00-2.401 1.741l-67.315 64.661c-4.803 4.45-7.614 10.426-7.614 16.794-.196 6.376 2.606 12.744 7.214 17.37s10.827 7.336 17.436 7.336 13.219-2.513 18.032-7.15l24.641-23.737v266.267c0 13.312 11.227 24.13 25.041 24.13s25.042-10.818 25.042-24.13V532.452l26.047 24.52c4.608 4.627 10.817 6.954 17.64 6.954 6.796 0 13.015-2.513 17.837-7.15l.186-.195c9.616-9.644 9.42-24.51-.4-33.773l-.224-.186z"/></svg>