<svg class="icon" viewBox="0 0 1024 1024" xmlns="http://www.w3.org/2000/svg" width="200" height="200"><defs><style/></defs><path d="M512 0C229.23 0 0 229.23 0 512s229.23 512 512 512 512-229.23 512-512S794.77 0 512 0zm0 998.4C243.369 998.4 25.6 780.631 25.6 512 25.6 243.366 243.369 25.6 512 25.6S998.4 243.366 998.4 512c0 268.631-217.769 486.4-486.4 486.4z"/><path d="M291.546 602.98v.005-.005zm440.908.005v-.005.005zm-220.464 36.55c-121.751 0-220.444-16.37-220.444-36.55v90.263c0 20.19 98.7 36.552 220.444 36.552 121.758 0 220.464-16.364 220.464-36.552v-90.263c0 20.183-98.698 36.55-220.464 36.55zm-220.444-163.36zM511.99 512.72c-121.751 0-220.444-16.363-220.444-36.539v90.261c0 20.183 98.7 36.544 220.444 36.544 121.764 0 220.464-16.364 220.464-36.544v-90.266c0 20.183-98.698 36.544-220.464 36.544zm220.464-36.544zm0-145.423c-.01-20.18-98.716-36.552-220.464-36.552-121.741 0-220.429 16.374-220.444 36.552v90.263c0 20.19 98.7 36.552 220.444 36.552 121.764 0 220.464-16.364 220.464-36.552v-90.263z"/></svg>