<svg class="icon" viewBox="0 0 1024 1024" xmlns="http://www.w3.org/2000/svg" width="200" height="200"><defs><style/></defs><path d="M360.306 474.112a37.945 37.945 0 0175.861-.028V701.61a37.945 37.945 0 01-75.861.028V474.112zM56.889 280.662c0-23.04 18.688-41.729 41.785-41.729h826.652a41.756 41.756 0 010 83.456H98.674a41.813 41.813 0 01-41.785-41.728zm530.972 193.45a37.945 37.945 0 0175.862-.028V701.61a37.945 37.945 0 01-75.862.028V474.112zm75.833-235.179v-90.965a15.19 15.19 0 00-15.132-15.218H375.41a15.218 15.218 0 00-15.161 15.218v90.965h-75.805V117.504a60.587 60.587 0 0160.587-60.615h333.824c33.536 0 60.7 27.164 60.7 60.615v121.43h-75.86zM208.612 967.111a60.672 60.672 0 01-60.672-60.643V322.36h75.86v553.671a15.19 15.19 0 0015.133 15.218h546.19c8.363 0 15.133-6.827 15.133-15.19v-553.7h75.861v584.08a60.672 60.672 0 01-60.672 60.643H208.612z"/></svg>