<svg class="icon" viewBox="0 0 1024 1024" xmlns="http://www.w3.org/2000/svg" width="200" height="200"><defs><style/></defs><path d="M616.653 396.98h73.37l-92.263-96v77.104c-.013 10.422 8.474 18.895 18.893 18.895z"/><path d="M616.653 417.894c-21.952 0-39.81-17.856-39.81-39.81v-97.216H351.961c-20.16 0-36.557 16.397-36.557 36.557v389.16c0 20.16 16.397 36.545 36.557 36.545h320.074c20.16 0 36.557-16.397 36.557-36.544V417.894h-91.94zm-15.45 149.888h-76.8v76.8c0 7.071-5.73 12.8-12.8 12.8s-12.8-5.729-12.8-12.8v-76.8h-76.8c-7.07 0-12.8-5.729-12.8-12.8s5.73-12.8 12.8-12.8h76.8v-76.8c0-7.073 5.73-12.8 12.8-12.8s12.8 5.727 12.8 12.8v76.8h76.8a12.8 12.8 0 110 25.6z"/><path d="M512 0C229.23 0 0 229.23 0 512s229.23 512 512 512 512-229.23 512-512S794.77 0 512 0zm0 998.4C243.369 998.4 25.6 780.631 25.6 512 25.6 243.366 243.369 25.6 512 25.6S998.4 243.366 998.4 512c0 268.631-217.769 486.4-486.4 486.4z"/></svg>