<svg class="icon" viewBox="0 0 1024 1024" xmlns="http://www.w3.org/2000/svg" width="200" height="200"><defs><style/></defs><path d="M921.699 549.049H355.616c-20.749 0-37.54-16.79-37.54-37.54 0-20.733 16.791-37.542 37.54-37.542h566.083c20.756 0 37.546 16.808 37.546 37.542 0 20.75-16.79 37.54-37.546 37.54zm0-300.324H355.616c-20.749 0-37.54-16.809-37.54-37.541 0-20.731 16.791-37.54 37.54-37.54h566.083c20.756 0 37.546 16.809 37.546 37.54 0 20.732-16.79 37.54-37.546 37.54zm-785.19 638.183c-41.464 0-75.086-33.617-75.086-75.076 0-41.466 33.622-75.08 75.087-75.08 41.46 0 75.08 33.615 75.08 75.08 0 41.46-33.62 75.076-75.08 75.076zm0-300.32c-41.464 0-75.086-33.621-75.086-75.078 0-41.468 33.622-75.083 75.087-75.083 41.46 0 75.08 33.615 75.08 75.083 0 41.456-33.62 75.079-75.08 75.079zm0-300.324c-41.464 0-75.086-33.616-75.086-75.08 0-41.466 33.622-75.082 75.087-75.082 41.46 0 75.08 33.615 75.08 75.082 0 41.465-33.62 75.08-75.08 75.08zm219.107 488.023h566.083c20.756 0 37.546 16.791 37.546 37.54s-16.79 37.542-37.546 37.542H355.616c-20.749 0-37.54-16.792-37.54-37.541s16.79-37.541 37.54-37.541zm0 0"/></svg>