<svg class="icon" viewBox="0 0 1024 1024" xmlns="http://www.w3.org/2000/svg" width="200" height="200"><defs><style/></defs><path d="M512 0C229.23 0 0 229.23 0 512s229.23 512 512 512 512-229.23 512-512S794.77 0 512 0zm0 998.4C243.369 998.4 25.6 780.631 25.6 512 25.6 243.366 243.369 25.6 512 25.6S998.4 243.366 998.4 512c0 268.631-217.769 486.4-486.4 486.4z"/><path d="M687.007 534.577c.944-7.37 1.65-14.743 1.65-22.574 0-7.84-.703-15.207-1.65-22.582l49.68-38.011c4.474-3.456 5.649-9.682 2.825-14.748l-47.099-79.719c-2.826-5.071-9.177-6.91-14.361-5.071l-58.63 23.045c-12.241-9.213-25.433-16.822-39.79-22.582l-8.947-61.06c-.704-5.53-5.652-9.675-11.543-9.675h-94.185c-5.88 0-10.826 4.145-11.54 9.674l-8.947 61.061c-14.364 5.76-27.546 13.594-39.79 22.582l-58.627-23.045c-5.42-2.071-11.54 0-14.364 5.071l-47.099 79.719c-3.054 5.066-1.646 11.292 2.826 14.748l49.68 38.01c-.945 7.376-1.649 14.977-1.649 22.583 0 7.6.71 15.203 1.649 22.574l-49.68 38.01c-4.472 3.464-5.652 9.677-2.826 14.754l47.099 79.72c2.826 5.067 9.178 6.91 14.364 5.067l58.627-23.048c12.244 9.224 25.436 16.822 39.79 22.582l8.947 61.061c.714 5.53 5.66 9.68 11.54 9.68h94.185c5.891 0 10.83-4.15 11.543-9.68l8.948-61.06c14.364-5.76 27.548-13.595 39.79-22.583l58.629 23.048c5.417 2.076 11.53 0 14.361-5.066l47.1-79.721c2.823-5.066 1.648-11.29-2.827-14.753l-49.68-38.011zM512.054 592.63c-45.44 0-82.41-36.173-82.41-80.635s36.97-80.645 82.41-80.645c45.45 0 82.416 36.175 82.416 80.645s-36.966 80.635-82.416 80.635z"/></svg>