<svg class="icon" viewBox="0 0 1024 1024" xmlns="http://www.w3.org/2000/svg" width="200" height="200"><defs><style/></defs><path d="M512 97.28C283.07 97.28 97.28 283.075 97.28 512S283.07 926.72 512 926.72c228.92 0 414.72-185.795 414.72-414.72S740.92 97.28 512 97.28zm194.913 394.808H531.901V317.082a794.03 794.03 0 01155.93 19.077 797.583 797.583 0 0119.082 155.93zm-175.006 39.819h175.011c-1.244 55.152-8.294 108.247-19.911 159.252-49.767 10.778-101.607 16.998-155.1 18.243V531.907zm355.824-39.819H748.8c-1.239-49.351-6.63-97.868-16.174-144.322a710.728 710.728 0 01140.18 57.646c8.295 27.786 13.266 56.816 14.925 86.676zM850.821 348.6c-40.642-19.077-83.768-34.421-128.973-46.448-12.032-45.205-27.371-88.33-46.448-128.564 76.718 36.496 138.516 98.704 175.421 175.012zM618.578 151.194c23.639 43.13 42.716 90.409 57.646 140.175-46.449-9.539-94.556-14.93-144.323-15.76V136.68a354.135 354.135 0 0186.677 14.515zm-126.49-14.93c0 .414 0 .414 0 0v138.93a860.56 860.56 0 00-148.055 16.59 756.46 756.46 0 0153.494-138.517c30.285-9.124 62.213-15.344 94.561-17.003zm-148.47 39.398c-17.418 39.813-31.928 82.53-43.13 126.904-44.79 12.027-87.092 27.372-127.32 46.034 36.081-75.064 96.63-136.028 170.45-172.938zm-192.43 229.755c43.131-23.224 89.58-42.716 139.352-57.231-8.71 46.448-14.101 94.556-15.35 143.902H136.259c1.664-29.86 6.64-58.89 14.93-86.671zm-14.93 126.49H275.19c1.249 51.01 6.64 100.367 15.76 147.64-48.938-13.686-94.972-31.519-137.688-53.499-9.124-29.865-15.34-61.379-17.003-94.141zm39.404 148.47c39.398 17.412 81.7 31.928 125.246 42.72 11.197 43.956 25.292 85.843 42.716 125.24a374.026 374.026 0 01-167.962-167.96zm316.426 207.36a370.406 370.406 0 01-94.141-17.004c-21.98-42.716-39.813-88.75-53.499-137.687 47.278 9.124 97.044 14.93 147.64 15.754v138.936zm0-178.745c-54.738-1.244-107.827-7.88-158.418-18.662-11.202-50.601-17.418-103.68-18.667-158.423h177.085v177.085zM315.003 492.088c1.244-53.499 7.465-105.748 18.242-155.1a792.663 792.663 0 01158.838-19.906v175.011h-177.08zm216.904 395.648V748.8c49.346-1.239 97.459-6.22 143.902-14.925a727.813 727.813 0 01-57.231 139.346 398.52 398.52 0 01-86.671 14.515zm143.902-36.91c18.668-40.228 34.007-82.529 46.034-127.319a830.27 830.27 0 00126.9-43.13c-37.325 73.82-98.284 134.369-172.934 170.45zm194.919-224.783c-42.722 21.98-89.165 39.813-138.517 53.499a785.649 785.649 0 0016.584-148.055h138.931c-1.654 33.182-7.455 64.696-16.998 94.556z"/></svg>