<svg class="icon" viewBox="0 0 1024 1024" xmlns="http://www.w3.org/2000/svg" width="200" height="200"><defs><style/></defs><path d="M993.735 148.907c.484-2.987 1.82-5.69 1.82-8.847 0-33.536-27.96-60.728-62.378-60.728-14.165 0-26.567 5.376-37.063 13.17l-.598-1.11-832.625 417.28c-19.94 6.912-34.447 25.116-34.447 46.876 0 22.67 15.616 41.103 36.75 47.389l252.73 84.508.455-1.052c4.01 1.337 8.078 2.446 12.572 2.446 22.329 0 40.448-17.664 40.448-39.339 0-15.217-9.159-28.046-22.13-34.673l.313-.711-192.796-63.887 661.049-331.264L431.73 641.223c-11.776 9.728-20.31 25.458-20.31 41.671 0 4.324 1.11 42.61 1.11 42.61v179.655c0 21.845 18.09 39.51 40.476 39.51 22.33 0 40.42-17.665 40.42-39.453V746.098L780.6 842.155c7.282 3.897 15.075 6.656 23.95 6.656 27.563 0 49.892-21.732 49.892-48.669 0-.114-.313-.284-.313-.398l141.426-650.41-1.82-.427zM780.402 758.67l-266.78-89.998 375.38-409.8-108.6 499.798z"/></svg>