<svg class="icon" viewBox="0 0 1024 1024" xmlns="http://www.w3.org/2000/svg" width="200" height="200"><defs><style/></defs><path d="M966.428 359.026c0-9.102.598-18.318-.597-27.25-5.091-37.404-31.687-53.817-66.133-39.111-19.94 8.505-38.059 21.163-57.202 31.602-22.613 12.316-37.973 28.87-31.83 56.718 5.661 25.628 24.434 34.02 48.612 34.873 4.722.142 9.33 3.64 14.08 5.603V760.52L655.844 871.481c-71.68-37.575-138.98-73.529-206.905-108.317-114.518-58.595-75.52-57.998-186.482-.284-35.1 18.261-69.774 37.262-115.172 61.554 0-104.391.655-196.893-.313-289.394-.426-40.647-3.1-78.28 45.512-98.56 24.462-10.183 27.904-41.045 14.705-60.928-14.393-21.618-35.555-25.145-57.6-15.616-19.91 8.59-37.916 21.419-57.315 31.346-25.629 13.056-35.527 33.194-35.385 61.838.711 143.616-.313 287.289.597 430.876.398 60.843 29.07 76.345 84.793 47.161 59.563-31.175 119.21-62.321 177.323-96.057 24.974-14.506 44.487-14.99 70.03-.768 74.61 41.5 151.353 79.161 226.219 120.235 28.615 15.673 52.65 15.218 81.408-.427a5348.238 5348.238 0 01223.118-114.375c34.02-16.469 47.16-39.225 46.677-77.084-1.678-134.57-.626-269.113-.626-403.655zM473.941 621.909c28.388 27.051 46.877 26.681 75.606-.54C614.57 559.844 672.768 492.174 708.892 409.4c16.413-37.604 24.406-78.877 36.21-118.5-4.835-117.9-83.57-211.17-198.798-229.972-109.796-17.92-217.003 47.275-251.648 153.828-19.4 59.676-12.885 118.5 10.496 175.616 37.205 90.908 98.617 164.721 168.79 231.537zm44.118-470.641c78.08 3.356 138.98 72.647 128.71 151.125-10.438 79.957-53.276 145.579-102.826 206.478-17.123 21.077-42.354 19.655-62.976 2.645-44.26-36.494-104.818-164.494-105.13-222.094-.399-80.298 62.663-141.568 142.222-138.154z"/></svg>