<svg class="icon" viewBox="0 0 1024 1024" xmlns="http://www.w3.org/2000/svg" width="200" height="200"><defs><style/></defs><path d="M909.966 546.631c.086-.116.165-.235.25-.351a58.33 58.33 0 001.374-1.972c.141-.212.273-.429.41-.641.375-.582.747-1.167 1.102-1.763.156-.261.302-.527.453-.79.322-.561.642-1.124.948-1.697.148-.278.288-.561.431-.841.292-.571.579-1.142.852-1.723.128-.274.248-.548.371-.823.27-.6.536-1.201.787-1.809.104-.254.202-.51.301-.764.25-.635.495-1.273.725-1.919.083-.233.159-.469.237-.704.227-.668.447-1.338.651-2.017.065-.221.125-.441.187-.661.197-.69.39-1.382.563-2.082.054-.224.102-.448.156-.672a57.86 57.86 0 00.457-2.089c.05-.254.091-.509.136-.763.122-.669.241-1.34.341-2.017.047-.322.081-.647.123-.97.079-.61.16-1.218.22-1.834.046-.467.071-.934.106-1.401.035-.479.08-.955.103-1.438a59.209 59.209 0 000-5.777c-.024-.482-.069-.959-.103-1.439-.035-.467-.06-.934-.106-1.401-.059-.616-.141-1.225-.22-1.835-.042-.323-.076-.647-.123-.969a58.615 58.615 0 00-.341-2.019c-.046-.254-.086-.509-.136-.762a60.71 60.71 0 00-.457-2.091c-.052-.224-.099-.448-.155-.671a56.117 56.117 0 00-.563-2.085c-.063-.22-.122-.44-.187-.66a60.05 60.05 0 00-.651-2.018c-.08-.234-.155-.47-.237-.704a57.334 57.334 0 00-.725-1.919c-.1-.255-.196-.51-.301-.763a57.266 57.266 0 00-.788-1.812c-.124-.273-.243-.548-.37-.821a57.515 57.515 0 00-.853-1.725c-.143-.279-.281-.561-.43-.839a56.184 56.184 0 00-.948-1.698c-.151-.263-.298-.528-.453-.789a57.847 57.847 0 00-1.102-1.763c-.138-.213-.27-.429-.41-.641a58.33 58.33 0 00-1.374-1.972c-.085-.117-.165-.235-.25-.351a58.818 58.818 0 00-6.147-7.085L670.294 236.757c-22.841-22.841-59.845-22.841-82.688 0s-22.841 59.845 0 82.688l134.081 134.081H161.154c-32.32 0-58.476 26.182-58.475 58.475s26.154 58.475 58.475 58.475h560.533L587.606 704.555c-22.841 22.841-22.841 59.845 0 82.688 11.421 11.421 26.381 17.131 41.344 17.131s29.922-5.711 41.344-17.131l233.527-233.527a58.715 58.715 0 006.145-7.084z"/></svg>