<svg class="icon" viewBox="0 0 1024 1024" xmlns="http://www.w3.org/2000/svg" width="200" height="200"><defs><style/></defs><path d="M924.444 135.111H99.556A56.889 56.889 0 0042.666 192v640a56.889 56.889 0 0056.89 56.889h824.888A56.889 56.889 0 00981.334 832V192a56.889 56.889 0 00-56.89-56.889zM896 760.89c0 23.552-20.082 42.667-44.828 42.667H172.828c-24.775 0-44.828-19.115-44.828-42.667V263.11c0-23.552 20.082-42.667 44.828-42.667h678.344c24.775 0 44.828 19.115 44.828 42.667v497.78z"/><path d="M827.563 330.183c-12.146-12.117-29.412-14.507-38.628-5.29l-303.303 303.33-118.926-118.954c-3.755-3.726-8.932-5.091-14.422-5.177-.768-.113-1.479-.056-2.247-.113-.74.057-1.479 0-2.247.113-5.518.057-10.695 1.423-14.45 5.177L191.204 651.406c-9.216 9.216-6.856 26.51 5.262 38.628 12.117 12.117 29.411 14.45 38.627 5.262l114.944-114.972 114.944 114.972c.598.597 1.508.74 2.19 1.252 11.777 9.472 26.767 11.15 35.186 2.759L832.853 368.81c9.188-9.216 6.827-26.51-5.29-38.628z"/></svg>