<svg class="icon" viewBox="0 0 1024 1024" xmlns="http://www.w3.org/2000/svg" width="200" height="200"><defs><style/></defs><path d="M512 0C229.23 0 0 229.23 0 512s229.23 512 512 512 512-229.23 512-512S794.77 0 512 0zm0 998.4C243.369 998.4 25.6 780.631 25.6 512 25.6 243.366 243.369 25.6 512 25.6S998.4 243.366 998.4 512c0 268.631-217.769 486.4-486.4 486.4z"/><path d="M328.19 353.27c6.143-7.511 12.29-14.508 18.434-20.992 4.774-5.804 9.81-11.264 15.099-16.384s9.305-8.873 12.034-11.262a82.852 82.852 0 0112.03-8.192c4.265-2.39 9.984-3.584 17.154-3.584h221.18c4.438 0 9.558.937 15.36 2.819 5.805 1.874 11.435 5.714 16.9 11.52 2.73 3.412 6.31 7.68 10.75 12.8 4.434 5.12 8.704 10.07 12.8 14.848a436.803 436.803 0 0114.336 18.432H328.189zm415.746 153.088c0 10.923-3.584 20.137-10.75 27.648-7.17 7.51-17.41 11.264-30.72 11.264h-378.37c-12.969 0-23.296-3.756-30.976-11.264s-11.52-16.725-11.52-27.648v-73.219c0-10.92 3.41-20.31 10.24-28.16 6.825-7.849 17.92-11.776 33.28-11.776h376.83c15.7 0 26.623 3.925 32.77 11.776s9.216 17.24 9.216 28.16v73.219zm-193.027-36.864c0-4.437-1.11-7.593-3.325-9.472-2.22-1.874-5.21-2.816-8.96-2.816h-51.715c-3.755 0-6.825 1.195-9.216 3.584s-3.584 5.289-3.584 8.701c.34 4.437 1.62 7.68 3.84 9.728 2.22 2.05 5.205 3.072 8.96 3.072h51.715c7.852.003 11.945-4.265 12.285-12.797zM742.4 691.699c0 10.926-4.186 20.311-12.544 28.16-8.366 7.85-19.031 11.605-32 11.264H322.56c-10.926 0-20.736-3.84-29.44-11.52s-13.056-18.345-13.056-32v-68.608c0-11.264 3.494-20.738 10.496-28.418 6.994-7.68 18.176-11.52 33.536-11.52h375.808c14.336 0 25.001 3.84 32 11.52 6.994 7.68 10.496 16.983 10.496 27.904v73.218zm-193.024-36.35c0-3.414-1.111-6.315-3.33-8.703-2.215-2.391-5.205-3.584-8.96-3.584h-51.71c-3.756 0-6.825 1.195-9.216 3.584s-3.584 5.289-3.584 8.704c0 3.412 1.196 6.315 3.584 8.701 2.391 2.391 5.46 3.584 9.216 3.584h51.71c3.755 0 6.745-1.195 8.96-3.584 2.219-2.386 3.33-5.289 3.33-8.701z"/></svg>