<svg class="icon" viewBox="0 0 1024 1024" xmlns="http://www.w3.org/2000/svg" width="200" height="200"><defs><style/></defs><path d="M837.604 277.134a2.276 2.276 0 00-.057-.483c-.2-.655 14.848 44.857-.598-1.935a88.462 88.462 0 00-.995-2.93c-14.962-42.495-39.225-58.965-57.003-62.321-22.84-4.352-47.587 5.774-47.587 35.499 0 4.437.853 9.272 2.417 14.25l-.142-.028c.085.256.228.512.37.768 1.621 5.063 3.954 10.268 6.77 15.445 13.767 34.02 21.333 71.225 21.333 110.165 0 76.118-28.956 145.522-76.459 197.803 102.03 60.274 177.21 184.15 203.065 303.673h92.615c-21.162-119.979-82.915-248.633-170.524-325.632a385.195 385.195 0 0042.155-175.844 386.276 386.276 0 00-15.36-108.43zm-408.548 359.88a250.027 250.027 0 10-.028-500.082 250.027 250.027 0 00.028 500.081zm158.151-253.355a161.48 161.48 0 11-322.958 0 161.48 161.48 0 01322.958 0zM769.991 887.04c-30.663-180.878-180.707-340.935-352.483-340.935-191.744 0-343.95 160.057-374.841 340.935h91.306c29.355-130.304 141.625-250.027 283.535-250.027 122.737 0 232.248 119.695 261.205 250.027h91.278z"/></svg>