<svg class="icon" viewBox="0 0 1024 1024" xmlns="http://www.w3.org/2000/svg" width="200" height="200"><defs><style/></defs><path d="M668.444 280.462c0-88.405-70.428-159.573-156.444-159.573s-156.444 71.168-156.444 159.573v106.382h312.888V280.462zm172.09 184.605H183.466V903.11h657.066V465.067zm-563.2-184.605C277.333 149.05 382.15 42.667 512 42.667s234.667 106.382 234.667 237.795v106.382h109.51c34.419 0 62.579 28.16 62.579 62.578v469.334c0 34.417-28.16 62.577-62.578 62.577H167.822c-34.446 0-62.578-28.16-62.578-62.577V449.422c0-34.418 28.132-62.578 62.578-62.578h109.511V280.462z"/></svg>