<svg class="icon" viewBox="0 0 1024 1024" xmlns="http://www.w3.org/2000/svg" width="200" height="200"><defs><style/></defs><path d="M722.1 279.194h146.738l-184.524-192v154.214c-.026 20.838 16.947 37.786 37.785 37.786z"/><path d="M722.1 321.024c-43.905 0-79.622-35.712-79.622-79.616V46.976H192.717c-40.32 0-73.114 32.794-73.114 73.114v778.316c0 40.32 32.794 73.088 73.114 73.088H832.87c40.32 0 73.114-32.793 73.114-73.088V321.024H722.099zM368.127 728.617a28.98 28.98 0 01-40.98 40.98l-84.762-84.746a36.475 36.475 0 010-51.568l84.746-84.762a28.99 28.99 0 0141.006 40.98l-69.565 69.56 69.555 69.556zM565.96 545.352l-51.22 240.952a28.98 28.98 0 01-34.376 22.318 28.98 28.98 0 01-22.324-34.38l51.226-240.953a28.984 28.984 0 0156.694 12.063zm215.639 143.34l-84.741 84.745a28.99 28.99 0 01-40.991.01 28.974 28.974 0 01-.02-40.99l69.565-69.555-69.54-69.56a28.98 28.98 0 0140.98-40.981l84.752 84.746.01.005a36.475 36.475 0 01-.015 51.58z"/></svg>