<svg class="icon" viewBox="0 0 1024 1024" xmlns="http://www.w3.org/2000/svg" width="200" height="200"><defs><style/></defs><path d="M616.653 396.98h73.37l-92.263-96v77.104c-.013 10.422 8.474 18.895 18.893 18.895z"/><path d="M616.653 417.894c-21.952 0-39.81-17.856-39.81-39.81v-97.216H351.961c-20.16 0-36.557 16.397-36.557 36.557v389.16c0 20.16 16.397 36.545 36.557 36.545h320.074c20.16 0 36.557-16.397 36.557-36.544V417.894h-91.94zM439.667 621.691a14.49 14.49 0 01-20.49 20.49l-42.378-42.373a18.237 18.237 0 010-25.784l42.373-42.381a14.495 14.495 0 0120.503 20.49l-34.785 34.78 34.777 34.778zm98.916-91.633l-25.61 120.476a14.487 14.487 0 01-17.188 11.16 14.49 14.49 0 01-11.162-17.191l25.613-120.476a14.49 14.49 0 1128.347 6.031zm107.82 71.67l-42.371 42.373a14.495 14.495 0 01-20.495.005 14.487 14.487 0 01-.01-20.495l34.782-34.778-34.772-34.78a14.49 14.49 0 0120.49-20.49l42.376 42.373.005.003a18.235 18.235 0 01-.005 25.789z"/><path d="M512 0C229.23 0 0 229.23 0 512s229.23 512 512 512 512-229.23 512-512S794.77 0 512 0zm0 998.4C243.369 998.4 25.6 780.631 25.6 512 25.6 243.366 243.369 25.6 512 25.6S998.4 243.366 998.4 512c0 268.631-217.769 486.4-486.4 486.4z"/></svg>