<svg class="icon" viewBox="0 0 1024 1024" xmlns="http://www.w3.org/2000/svg" width="200" height="200"><defs><style/></defs><path d="M510.236 74.667H112.014a56.889 56.889 0 00-56.889 56.889v398.222a56.889 56.889 0 0056.89 56.889h398.221a56.889 56.889 0 0056.89-56.89v-398.22a56.889 56.889 0 00-56.89-56.89zm-28.444 384a42.667 42.667 0 01-42.667 42.666h-256a42.667 42.667 0 01-42.666-42.666v-256A42.667 42.667 0 01183.125 160h256a42.667 42.667 0 0142.667 42.667v256z"/><path d="M911.986 295.111H371.54A56.889 56.889 0 00314.652 352v540.444a56.889 56.889 0 0056.89 56.89h540.444a56.889 56.889 0 0056.889-56.89V352a56.889 56.889 0 00-56.89-56.889zM883.54 821.333A42.667 42.667 0 01840.875 864H442.652a42.667 42.667 0 01-42.666-42.667V423.111a42.667 42.667 0 0142.666-42.667h398.223a42.667 42.667 0 0142.666 42.667v398.222z"/></svg>