<svg class="icon" viewBox="0 0 1024 1024" xmlns="http://www.w3.org/2000/svg" width="200" height="200"><defs><style/></defs><path d="M556.023 902.358c-18.134 9.952-31.316 14.383-42.71 14.383-11.479 0-24.279-4.385-42.71-14.718-307.63-171.985-306.615-266.203-302.836-616.727.382-34.854.782-72.043.903-111.886a2498.327 2498.327 0 01151.767-40.113c58.051-13.498 122.619-22.22 191.879-25.963 131.76 14.792 232.83 34.304 342.304 66.253.196 45.028.782 86.62 1.285 125.151 4.757 352.321 5.92 436.047-299.883 603.62M915.884 297.9c-.586-44.73-1.257-93.519-1.359-147.102a30.264 30.264 0 00-21.402-28.998c-122.219-37.115-231.33-58.87-376.655-75.078a32.116 32.116 0 00-4.822-.14c-73.672 3.845-142.522 13.117-204.66 27.546-62.52 14.532-122.135 30.6-177.124 47.737a30.31 30.31 0 00-21.15 28.998c0 48.23-.503 92.626-.922 133.772-3.807 350.022-5.222 480.991 333.787 670.543 27.955 15.63 49.412 22.286 71.736 22.286 21.913 0 43.91-6.703 71.289-21.69C922.298 770.662 920.827 661.066 915.884 297.9m-192.27 13.526L453.13 586.193 320.344 451.342a39.722 39.722 0 00-56.58-.102 40.848 40.848 0 00-.093 57.25l161.121 163.608c7.522 7.615 17.697 11.906 28.337 11.906s20.843-4.291 28.337-11.925l298.822-303.55a40.792 40.792 0 00-.121-57.224 39.62 39.62 0 00-56.553.121"/></svg>