<svg class="icon" viewBox="0 0 1024 1024" xmlns="http://www.w3.org/2000/svg" width="200" height="200"><defs><style/></defs><path d="M226.22 352.842c-11.906-91.042 7.848-156.02 54.151-184.608 47.7-29.389 117.425-14.215 194.681 42.794 73.477 53.657 148.08 138.063 207.854 238.415l10.398 18.013c56.003 96.991 93.556 197.241 104.457 283.331 11.916 91.034-7.838 156.02-54.142 184.6-47.7 29.389-117.424 14.215-193.88-41.398-73.467-53.657-148.061-138.072-207.853-238.415l-10.399-18.022c-56.804-98.379-94.357-198.628-105.267-284.71zm419.46 124.342c-55.324-89.86-119.79-165.74-185.121-213.28-59.727-43.818-110.834-57.8-143.118-39.173-30.236 19.195-42.394 69.716-33.224 139.245 10.873 75.497 44.134 165.916 94.617 253.347l9.04 15.667c55.324 89.852 119.798 165.73 185.12 213.272 59.727 43.817 110.844 57.8 143.118 39.163 30.236-19.195 42.394-69.707 33.234-139.236-10.129-74.203-43.38-164.604-94.618-253.347l-9.048-15.658z"/><path d="M528.002 751.01h-20.796c-116.801-1.6-227.198-23.998-310.403-60.797C110.406 651.813 62.4 599.013 64 543.018c1.601-54.402 47.998-104.001 132.803-139.199 80.003-33.596 185.605-51.2 297.603-51.2h20.796c116.801 1.601 227.198 23.999 310.403 60.798 87.998 38.4 135.996 91.2 134.404 147.195-1.6 54.402-47.997 104.001-132.803 139.199-80.003 33.596-185.605 51.2-299.204 51.2zm-36.296-352.292c-102.474 0-197.4 16.402-266.715 44.73-64.79 26.838-102.465 62.622-103.973 98.397 0 37.274 37.674 74.547 105.481 104.364 73.84 32.796 171.781 50.688 277.262 53.676h18.079c100.966 0 195.89-16.402 266.714-44.73 64.792-26.838 102.466-62.622 103.974-98.397 0-37.273-37.674-74.547-105.482-104.364-73.84-32.796-171.78-50.688-277.262-53.676h-18.078zm124.742-230.4c0 52.8 43.203 94.403 94.403 94.403 52.802 0 94.404-43.203 94.404-94.403 0-52.801-43.204-94.404-94.404-94.404-52.81 0-94.403 41.603-94.403 94.404"/><path d="M741.907 302.713c1.424 18.18.856 38.623-2.132 61.272-10.873 75.497-44.135 165.916-94.618 253.347L636.118 633c-55.324 89.85-119.799 165.73-185.12 213.27-59.728 43.819-110.844 57.801-143.118 39.164-30.236-19.195-42.394-69.706-33.234-139.236 10.128-74.203 43.38-164.603 94.618-253.347l9.048-15.658c55.324-89.86 119.79-165.739 185.12-213.28a362.952 362.952 0 0132.536-21.43l-26.363-45.67c-6.824 4.422-13.703 9.095-20.667 14.233-73.467 53.64-148.07 138.045-207.844 238.397l-10.398 18.013c-56.003 96.991-93.556 197.241-104.457 283.331-11.916 91.034 7.838 156.02 54.142 184.6 47.7 29.389 117.424 14.215 193.88-41.398 73.467-53.657 148.061-138.072 207.853-238.415l10.399-18.022c56.804-98.379 94.357-198.628 105.267-284.71 3.118-23.85 3.928-45.772 2.783-65.852l-58.656 15.723z"/></svg>