<svg class="icon" viewBox="0 0 1024 1024" xmlns="http://www.w3.org/2000/svg" width="200" height="200"><defs><style/></defs><path d="M824.86 516.58c.285 5.717.854 11.377.854 17.18 0 185.6-150.528 336.128-336.157 336.128s-336.128-150.5-336.128-336.1c0-185.628 150.5-336.156 336.128-336.156 7.424 0 14.65.626 21.931 1.11v-90.51c-7.31-.4-14.507-1.11-21.93-1.11-235.606 0-426.667 191.033-426.667 426.666 0 235.606 191.061 426.667 426.666 426.667 235.634 0 426.667-191.061 426.667-426.667 0-5.802-.626-11.434-.853-17.18h-90.51z"/><path d="M491.776 63.545a58.624 58.624 0 00-58.652 58.652v410.681c0 32.455 26.282 58.653 58.652 58.653h410.68a58.652 58.652 0 0058.653-58.653c0-259.186-210.147-469.333-469.333-469.333zm31.716 437.276v-346.51c177.464 29.895 317.297 169.16 347.25 346.539h-347.25z"/></svg>