<svg class="icon" viewBox="0 0 1024 1024" xmlns="http://www.w3.org/2000/svg" width="200" height="200"><defs><style/></defs><path d="M633.315 432.512c-26.537-26.537-51.198-43.006-77.606-51.795-19.03-6.358-34.175-21.503-40.489-40.489-8.79-26.452-25.256-51.111-51.795-77.606L237.173 36.37c-46.804-46.804-128.72-47.016-175.736 0L36.35 61.457C12.927 84.922 0 116.111 0 149.431c0 33.15 12.927 64.34 36.35 87.762l226.252 226.252c26.537 26.537 51.198 43.006 77.606 51.795 19.03 6.358 34.175 21.503 40.489 40.489 8.79 26.408 25.3 51.111 52.605 78.418 9.942 9.983 22.997 14.933 36.053 14.933 13.013 0 25.94-4.95 35.796-14.847l129.06-129.06c19.797-19.757 19.797-51.968-.896-72.66zm-29.183 42.536l-129.06 129.06c-3.286 3.2-8.32 3.114-12.287-.854-21.717-21.717-34.943-41.086-41.556-61.01-10.582-31.701-35.797-56.916-67.495-67.496-19.881-6.613-39.252-19.797-60.925-41.47L66.557 207.028c-15.401-15.359-23.893-35.838-23.893-57.767 0-21.759 8.49-42.238 23.849-57.64l25.089-25.044c15.401-15.401 35.838-23.893 57.767-23.893 21.801 0 42.28 8.49 57.64 23.849L433.26 292.785c21.717 21.673 34.857 41 41.512 60.925 10.582 31.7 35.797 56.915 67.495 67.495 19.925 6.613 39.252 19.797 61.863 42.408a8.084 8.084 0 01.002 11.435z"/><path d="M1021.735 950.418l-73.554-147.065c-10.922-21.8-32.853-35.368-57.256-35.368h-28.798L612.366 518.268c-8.32-8.32-21.845-8.32-30.165 0s-8.32 21.845 0 30.165L838.19 804.42a21.487 21.487 0 0015.103 6.23h37.63c8.15 0 15.445 4.522 19.03 11.817l66.684 133.328-20.905 20.905-133.328-66.685a21.191 21.191 0 01-11.775-19.07v-37.631a21.349 21.349 0 00-6.272-15.103L548.37 582.223c-8.32-8.32-21.845-8.32-30.165 0s-8.32 21.845 0 30.165l249.76 249.759v28.798c0 24.361 13.568 46.334 35.37 57.214l147.064 73.554a21.327 21.327 0 0024.661-4.01l42.664-42.664a21.297 21.297 0 004.012-24.62z"/><path d="M1023.57 200.459c-.427-7.338-5.463-14.378-11.946-17.92a21.275 21.275 0 00-21.205.427l-116.731 70.012c-35.454-18.345-58.621-52.775-62.503-91.941l130.384-78.205a21.417 21.417 0 0010.325-16.809 21.423 21.423 0 00-7.893-18.09C905.9 17.172 860.719.619 813.275.02 761.18-.406 705.504 23.827 664.76 67.259c-47.614 50.728-69.63 101.03-67.367 153.679 1.238 28.885-11.69 59.091-35.497 82.898l-61.395 61.395c-8.32 8.362-8.32 21.845 0 30.165a107.295 107.295 0 0041.726 25.813c19.925 6.613 39.252 19.797 61.863 42.408 2.688 2.688 2.688 8.745 0 11.433l-32.552 32.553c-8.32 8.32-8.32 21.845 0 30.164L592.87 559.1c4.182 4.138 9.641 6.23 15.103 6.23s10.922-2.09 15.103-6.272L761.91 420.227c17.28 4.394 33.023 6.441 48.724 6.441 58.493 0 115.067-24.404 155.215-67.026 40.74-43.178 61.219-99.708 57.721-159.183zm-88.743 129.956c-32.596 34.558-76.71 53.587-124.196 53.587-15.103 0-30.59-2.56-48.852-8.105a21.235 21.235 0 00-21.247 5.334l-91.644 91.643c.938-14.293-4.182-29.012-15.529-40.36-26.537-26.537-51.198-43.006-77.65-51.795a57.03 57.03 0 01-7.338-2.944l43.774-43.816c32.254-32.213 49.748-74.109 47.956-114.897-1.792-41.128 15.957-80.124 55.847-122.66 32.51-34.687 76.54-54.824 116.773-53.716 27.433.342 54.013 7.466 78.246 20.777l-112.635 67.581a21.337 21.337 0 00-10.367 18.303c0 60.755 33.748 115.365 88.102 142.628l9.001 4.48c6.57 3.241 14.294 2.943 20.521-.81l93.734-56.232c-5.118 33.96-20.39 65.403-44.496 91.002zM559.12 592.93l-21.333-21.333c-8.32-8.32-21.845-8.32-30.164 0L475.07 604.15c-3.286 3.2-8.32 3.114-12.287-.854-21.76-21.759-34.943-41.128-41.556-61.01a106.667 106.667 0 00-25.813-41.727c-8.362-8.32-21.845-8.32-30.165 0L300.91 564.9c-21.077 21.032-52.391 30.548-87.59 32.424C95.698 597.327 0 693.023 0 810.649c0 7.466.938 14.633 1.878 21.8l.682 5.035a21.411 21.411 0 0011.861 16.469 21.323 21.323 0 0020.31-.896l136.825-82.086c35.455 18.345 58.621 52.733 62.503 91.941L91.346 948.541c-6.144 3.711-10.07 10.281-10.326 17.449a21.303 21.303 0 008.918 18.217c36.436 25.94 78.93 39.678 122.96 39.764h.298c52.948 0 106.491-24.873 146.896-68.179 46.973-50.387 68.732-100.305 66.47-152.61-1.237-28.927 11.734-59.262 35.625-83.155l96.933-96.934c8.32-8.317 8.32-21.843 0-30.162zm-127.182 96.891c-32.296 32.297-49.832 74.279-48.084 115.153 1.75 40.872-15.743 79.526-55.037 121.723-32.34 34.728-74.45 54.611-115.62 54.611h-.215c-23.765-.042-47.016-5.12-68.605-14.805l122.577-73.555a21.337 21.337 0 0010.367-18.303c0-60.755-33.79-115.409-88.102-142.628l-9.001-4.48a21.395 21.395 0 00-20.521.81L43.136 798.32c6.314-88.358 80.252-158.328 170.702-158.328h.768c46.12 0 87.462-15.958 116.475-44.926l46.676-46.676c1.152 2.39 2.09 4.822 2.944 7.338 8.79 26.408 25.3 51.111 52.605 78.418 10.794 10.837 25.129 15.913 39.508 14.805l-40.876 40.872z"/></svg>