<svg class="icon" viewBox="0 0 1024 1024" xmlns="http://www.w3.org/2000/svg" width="200" height="200"><defs><style/></defs><path d="M900.204 351.273C858.045 249.083 775.332 166.144 673.08 124.15c-102.891-42.26-219.53-42.414-322.36 0-101.402 41.84-184.694 124.298-227.123 227.123-41.83 101.402-41.994 219.208 0 321.449C165.857 775.624 249.318 858.01 350.72 899.85c102.83 42.42 219.474 42.26 322.36 0 102.257-42 185.13-124.882 227.124-227.128 42.265-102.892 42.096-219.392 0-321.449zm-42.732 304.22c-37.74 90.394-112.2 164.859-202.593 202.609-90.727 37.883-194.54 36.823-287.555 0-185.21-73.34-278.497-304.354-202.598-489.221 76.329-185.908 306.334-282.9 490.148-202.604 89.769 39.22 164.526 110.47 202.593 202.604 37.555 90.864 37.888 195.896.005 286.612z"/><path d="M693.228 540.841H519.224v-259.17c0-33.889-53.115-33.889-53.115 0v288.492c0 10.291 4.117 17.838 12.34 22.651a29.706 29.706 0 0018.8 6.651h195.979c15.57 0 29.306-11.91 29.306-29.302 0-15.585-13.731-29.322-29.306-29.322z"/></svg>