<svg class="icon" viewBox="0 0 1024 1024" xmlns="http://www.w3.org/2000/svg" width="200" height="200"><defs><style/></defs><path d="M903.111 938.297a391.652 391.652 0 00-233.102-346.51A296.448 296.448 0 00809.273 339.91C809.244 175.644 676.267 42.667 512 42.667S214.756 175.644 214.756 339.91c0 106.382 55.523 199.481 140.003 251.876-134.514 59.449-229.177 191.63-233.87 346.51v3.925c0 21.902 17.209 39.111 39.111 39.111s39.111-17.209 39.111-39.11C203.008 773.262 341.476 637.155 512 637.155s308.964 136.106 312.889 305.066c0 21.902 17.209 39.111 39.111 39.111s39.111-17.209 39.111-39.11v-3.926zM512 558.933a218.652 218.652 0 01-219.022-219.022c0-121.259 97.792-219.022 219.022-219.022S730.994 218.68 730.994 339.91c0 121.23-97.735 219.022-218.994 219.022z"/></svg>