<svg xmlns="http://www.w3.org/2000/svg" viewBox="0 0 512.004 512.004"><path d="M494.332 256.003c-5.912-82.504-54.11-156.07-127.39-194.437V25.6c-.015-14.132-11.468-25.585-25.6-25.6h-204.8c-14.132.015-25.585 11.468-25.6 25.6v57.801C29.535 145.57-3.159 252.731 29.681 349.755 62.52 446.779 153.578 512.054 256.009 512h1.082l.027.004.025-.004h.017a236.858 236.858 0 00137.975-44.7c.293-.208.572-.436.833-.683 67.06-48.424 104.276-128.11 98.364-210.614zm-447.995 89.71c-29.69-85.778-4.094-180.99 64.605-240.318v261.538c.015 14.132 11.468 25.585 25.6 25.6h106.407a273.497 273.497 0 002.731 102.138c-90.675-4.164-169.653-63.18-199.343-148.958zm201.48-12.913h-17.408v-17.067a8.53 8.53 0 00-8.534-8.534 8.53 8.53 0 00-8.534 8.534V332.8h-17.067v-8.533c0-4.713-3.82-8.533-8.533-8.533s-8.533 3.82-8.533 8.533v8.533h-17.067v-42.667h85.675V332.8zm0-59.733h-85.675c-9.421.011-17.056 7.646-17.067 17.067V332.8c.011 9.421 7.646 17.056 17.067 17.067h85.675v16.054c-.371 1.577-1.12 4.946-2.006 9.546H136.542a8.54 8.54 0 01-8.533-8.533V25.6a8.54 8.54 0 018.533-8.533h204.8a8.54 8.54 0 018.533 8.533v334.996a16.586 16.586 0 01-11.183 13.908 9.295 9.295 0 00-1.242.375c-.108.038-1 .2-1.108.242-1.13.226-2.28.342-3.433.346a17.18 17.18 0 01-11.817-5.008 16.937 16.937 0 01-5.009-12.058v-85.333c0-18.851-15.282-34.133-34.133-34.133s-34.133 15.28-34.133 34.132zm135.014 181.964a219.557 219.557 0 01-119.485 39.634c-11.303-39.267-6.233-84.823-1.995-109.241 1.7-10.071 3.267-16.358 3.275-16.421a8.27 8.27 0 00.258-2.071v-93.867c0-9.426 7.641-17.067 17.067-17.067s17.067 7.641 17.067 17.067v85.333a33.902 33.902 0 0010.008 24.129 34.46 34.46 0 0023.784 10.004 31.204 31.204 0 006.242-.575 18.344 18.344 0 003.8-.887 5.06 5.06 0 00.35-.096c14.379-4.294 24.194-17.569 24.083-32.575V250.592c15.383 25.304 37.35 66.592 41.967 102.487a45.609 45.609 0 01-2.958 22.196l-23.463 79.756zm23.275-18.701l16.328-55.576a61.58 61.58 0 003.75-29.842c-7.222-56.093-51.147-120.728-59.242-132.246V80.962c68.831 39.429 111.189 112.781 110.933 192.104a222.25 222.25 0 01-71.769 163.264z"/><path d="M238.942 34.133c-14.138 0-25.6 11.461-25.6 25.6.015 14.132 11.468 25.585 25.6 25.6 14.138 0 25.6-11.461 25.6-25.6s-11.462-25.6-25.6-25.6zm0 34.134a8.533 8.533 0 01-8.533-8.533 8.54 8.54 0 018.533-8.533c4.713 0 8.533 3.82 8.533 8.533s-3.82 8.533-8.533 8.533zm-27 59.801a8.535 8.535 0 00-6.591 5.469l-17.608 46.958-17.608-46.958a8.535 8.535 0 10-15.983 5.991l25.6 68.267a8.535 8.535 0 0015.982 0l25.6-68.267a8.534 8.534 0 00-9.392-11.46zm35.533-.068a8.53 8.53 0 00-8.534 8.534V204.8a8.533 8.533 0 0017.066 0v-68.267a8.53 8.53 0 00-8.532-8.533zm34.134 85.333a8.53 8.53 0 008.534-8.534v-25.6h8.533c14.138 0 25.6-11.461 25.6-25.6 0-14.139-11.462-25.6-25.6-25.6h-17.067a8.53 8.53 0 00-8.534 8.534V204.8a8.53 8.53 0 008.534 8.533zm8.533-68.266h8.533a8.533 8.533 0 010 17.066h-8.533v-17.066z"/></svg>