<svg class="icon" viewBox="0 0 1024 1024" xmlns="http://www.w3.org/2000/svg" width="200" height="200"><defs><style/></defs><path d="M781.369 985.23c-102.372 0-185.629-83.342-185.629-185.742 0-5.831.285-11.662.825-17.465L361.53 654.251a186.084 186.084 0 01-118.955 43.491C140.174 697.742 56.89 614.4 56.89 512s83.285-185.685 185.685-185.685c28.018 0 56.206 6.513 81.437 18.858a186.539 186.539 0 0150.602 36.41l225.252-119.07a184.661 184.661 0 01-.142-76.145c17.948-85.504 94.321-147.57 181.646-147.57a185.6 185.6 0 0191.449 24.064 54.215 54.215 0 0120.508 73.614 54.471 54.471 0 01-47.673 27.392c-9.244 0-18.29-2.36-26.14-6.798a79.047 79.047 0 00-22.272-8.362 77.71 77.71 0 00-91.563 59.932 76.857 76.857 0 0011.037 58.169 76.572 76.572 0 0064.796 35.129 77.54 77.54 0 0077.284-75.463 54.5 54.5 0 0154.158-52.992c15.474.284 29.24 6.257 39.253 16.782 9.785 10.183 15.133 23.865 14.905 38.4a189.724 189.724 0 01-3.982 34.048c-17.977 85.419-94.379 147.484-181.646 147.484A186.14 186.14 0 01652.06 357.66L424.988 477.696a184.804 184.804 0 01-3.953 85.703l217.258 118.158a184.917 184.917 0 0152.992-44.316 185.77 185.77 0 0190.055-23.325c102.372 0 185.657 83.257 185.657 185.572a184.548 184.548 0 01-54.414 131.3A184.32 184.32 0 01781.37 985.23zm0-263.082a77.454 77.454 0 000 154.88 77.54 77.54 0 0077.426-77.512c0-20.593-8.05-39.992-22.67-54.641a77.084 77.084 0 00-54.756-22.727zM242.546 434.63A77.483 77.483 0 00165.12 512c0 42.695 34.73 77.426 77.426 77.426s77.426-34.73 77.426-77.426c0-42.667-34.731-77.369-77.426-77.369z"/></svg>